<svg width="32" height="32" viewBox="0 0 32 32" fill="none" xmlns="http://www.w3.org/2000/svg">
<g id="calendar(2) 1" clip-path="url(#clip0_118_31038)">
<g id="Group">
<path id="Vector" d="M27.875 0.9375C27.875 0.42 27.455 0 26.9375 0C26.42 0 26 0.42 26 0.9375V2.5H27.875V0.9375Z" fill="#7871D8"/>
<path id="Vector_2" d="M23.5 0.9375C23.5 0.42 23.08 0 22.5625 0C22.045 0 21.625 0.42 21.625 0.9375V2.5H23.5V0.9375Z" fill="#7871D8"/>
<path id="Vector_3" d="M19.125 0.9375C19.125 0.42 18.705 0 18.1875 0C17.67 0 17.25 0.42 17.25 0.9375V2.5H19.125V0.9375Z" fill="#7871D8"/>
<path id="Vector_4" d="M14.75 0.9375C14.75 0.42 14.33 0 13.8125 0C13.295 0 12.875 0.42 12.875 0.9375V2.5H14.75V0.9375Z" fill="#7871D8"/>
<path id="Vector_5" d="M10.375 0.9375C10.375 0.42 9.955 0 9.4375 0C8.92 0 8.5 0.42 8.5 0.9375V2.5H10.375V0.9375Z" fill="#7871D8"/>
<path id="Vector_6" d="M6 0.9375C6 0.42 5.58 0 5.0625 0C4.545 0 4.125 0.42 4.125 0.9375V2.5H6V0.9375Z" fill="#7871D8"/>
<path id="Vector_7" d="M31.0625 2.5H27.875V4.6875C27.875 5.205 27.455 5.625 26.9375 5.625C26.42 5.625 26 5.205 26 4.6875V2.5H23.5V4.6875C23.5 5.205 23.08 5.625 22.5625 5.625C22.045 5.625 21.625 5.205 21.625 4.6875V2.5H19.125V4.6875C19.125 5.205 18.705 5.625 18.1875 5.625C17.67 5.625 17.25 5.205 17.25 4.6875V2.5H14.75V4.6875C14.75 5.205 14.33 5.625 13.8125 5.625C13.295 5.625 12.875 5.205 12.875 4.6875V2.5H10.375V4.6875C10.375 5.205 9.955 5.625 9.4375 5.625C8.92 5.625 8.5 5.205 8.5 4.6875V2.5H6V4.6875C6 5.205 5.58 5.625 5.0625 5.625C4.545 5.625 4.125 5.205 4.125 4.6875V2.5H0.9375C0.42 2.5 0 2.92 0 3.4375V7.5H32V3.4375C32 2.92 31.58 2.5 31.0625 2.5Z" fill="#7871D8"/>
<path id="Vector_8" d="M6.25547 31.0836V25.6992H0.871094L6.25547 31.0836Z" fill="#7871D8"/>
<path id="Vector_9" d="M0 23.8225H7.19375C7.71125 23.8225 8.13125 24.2419 8.13125 24.76V32H31.0625C31.58 32 32 31.58 32 31.0625V9.375H0V23.8225ZM12.2788 29.125C11.7613 29.125 11.3413 28.7056 11.3413 28.1875C11.3413 27.67 11.7613 27.25 12.2788 27.25C12.7969 27.25 13.2163 27.67 13.2163 28.1875C13.2163 28.7056 12.7969 29.125 12.2788 29.125ZM27.2794 12.25C27.7969 12.25 28.2169 12.67 28.2169 13.1875C28.2169 13.705 27.7969 14.125 27.2794 14.125C26.7619 14.125 26.3419 13.705 26.3419 13.1875C26.3419 12.67 26.7619 12.25 27.2794 12.25ZM27.2794 16C27.7969 16 28.2169 16.4194 28.2169 16.9375C28.2169 17.455 27.7969 17.875 27.2794 17.875C26.7619 17.875 26.3419 17.455 26.3419 16.9375C26.3419 16.4194 26.7619 16 27.2794 16ZM27.2794 19.75C27.7969 19.75 28.2169 20.17 28.2169 20.6875C28.2169 21.205 27.7969 21.625 27.2794 21.625C26.7619 21.625 26.3419 21.205 26.3419 20.6875C26.3419 20.17 26.7619 19.75 27.2794 19.75ZM27.2794 23.5C27.7969 23.5 28.2169 23.92 28.2169 24.4375C28.2169 24.955 27.7969 25.375 27.2794 25.375C26.7619 25.375 26.3419 24.955 26.3419 24.4375C26.3419 23.92 26.7619 23.5 27.2794 23.5ZM27.2794 27.25C27.7969 27.25 28.2169 27.67 28.2169 28.1875C28.2169 28.7056 27.7969 29.125 27.2794 29.125C26.7619 29.125 26.3419 28.7056 26.3419 28.1875C26.3419 27.67 26.7619 27.25 27.2794 27.25ZM23.5287 12.25C24.0469 12.25 24.4662 12.67 24.4662 13.1875C24.4662 13.705 24.0469 14.125 23.5287 14.125C23.0112 14.125 22.5912 13.705 22.5912 13.1875C22.5912 12.67 23.0112 12.25 23.5287 12.25ZM23.5287 16C24.0469 16 24.4662 16.4194 24.4662 16.9375C24.4662 17.455 24.0469 17.875 23.5287 17.875C23.0112 17.875 22.5912 17.455 22.5912 16.9375C22.5912 16.4194 23.0112 16 23.5287 16ZM23.5287 19.75C24.0469 19.75 24.4662 20.17 24.4662 20.6875C24.4662 21.205 24.0469 21.625 23.5287 21.625C23.0112 21.625 22.5912 21.205 22.5912 20.6875C22.5912 20.17 23.0112 19.75 23.5287 19.75ZM23.5287 23.5C24.0469 23.5 24.4662 23.92 24.4662 24.4375C24.4662 24.955 24.0469 25.375 23.5287 25.375C23.0112 25.375 22.5912 24.955 22.5912 24.4375C22.5912 23.92 23.0112 23.5 23.5287 23.5ZM23.5287 27.25C24.0469 27.25 24.4662 27.67 24.4662 28.1875C24.4662 28.7056 24.0469 29.125 23.5287 29.125C23.0112 29.125 22.5912 28.7056 22.5912 28.1875C22.5912 27.67 23.0112 27.25 23.5287 27.25ZM19.7787 12.25C20.2969 12.25 20.7162 12.67 20.7162 13.1875C20.7162 13.705 20.2969 14.125 19.7787 14.125C19.2612 14.125 18.8412 13.705 18.8412 13.1875C18.8412 12.67 19.2612 12.25 19.7787 12.25ZM19.7787 16C20.2969 16 20.7162 16.4194 20.7162 16.9375C20.7162 17.455 20.2969 17.875 19.7787 17.875C19.2612 17.875 18.8412 17.455 18.8412 16.9375C18.8412 16.4194 19.2612 16 19.7787 16ZM19.7787 19.75C20.2969 19.75 20.7162 20.17 20.7162 20.6875C20.7162 21.205 20.2969 21.625 19.7787 21.625C19.2612 21.625 18.8412 21.205 18.8412 20.6875C18.8412 20.17 19.2612 19.75 19.7787 19.75ZM19.7787 23.5C20.2969 23.5 20.7162 23.92 20.7162 24.4375C20.7162 24.955 20.2969 25.375 19.7787 25.375C19.2612 25.375 18.8412 24.955 18.8412 24.4375C18.8412 23.92 19.2612 23.5 19.7787 23.5ZM19.7787 27.25C20.2969 27.25 20.7162 27.67 20.7162 28.1875C20.7162 28.7056 20.2969 29.125 19.7787 29.125C19.2612 29.125 18.8412 28.7056 18.8412 28.1875C18.8412 27.67 19.2612 27.25 19.7787 27.25ZM16 12.25C16.5175 12.25 16.9375 12.67 16.9375 13.1875C16.9375 13.7056 16.5175 14.125 16 14.125C15.4825 14.125 15.0625 13.7056 15.0625 13.1875C15.0625 12.67 15.4825 12.25 16 12.25ZM16 16C16.5175 16 16.9375 16.4194 16.9375 16.9375C16.9375 17.455 16.5175 17.875 16 17.875C15.4825 17.875 15.0625 17.455 15.0625 16.9375C15.0625 16.4194 15.4825 16 16 16ZM16 19.75C16.5175 19.75 16.9375 20.17 16.9375 20.6875C16.9375 21.2056 16.5175 21.625 16 21.625C15.4825 21.625 15.0625 21.2056 15.0625 20.6875C15.0625 20.17 15.4825 19.75 16 19.75ZM16 23.5C16.5175 23.5 16.9375 23.92 16.9375 24.4375C16.9375 24.9556 16.5175 25.375 16 25.375C15.4825 25.375 15.0625 24.9556 15.0625 24.4375C15.0625 23.92 15.4825 23.5 16 23.5ZM16 27.25C16.5175 27.25 16.9375 27.67 16.9375 28.1875C16.9375 28.7056 16.5175 29.125 16 29.125C15.4825 29.125 15.0625 28.7056 15.0625 28.1875C15.0625 27.67 15.4825 27.25 16 27.25ZM13.2163 24.4375C13.2163 24.955 12.7969 25.375 12.2788 25.375C11.7613 25.375 11.3413 24.955 11.3413 24.4375C11.3413 23.92 11.7613 23.5 12.2788 23.5C12.7969 23.5 13.2163 23.92 13.2163 24.4375ZM4.05375 16.0156C4.42 15.6494 5.01312 15.6494 5.37937 16.0156L6.97062 17.6069L10.2987 14.2788C10.665 13.9131 11.2587 13.9131 11.6244 14.2788C11.9906 14.645 11.9906 15.2387 11.6244 15.605L7.63375 19.5956C7.26744 19.9622 6.67381 19.9622 6.3075 19.5956L4.05375 17.3419C3.6875 16.9756 3.6875 16.3819 4.05375 16.0156Z" fill="#7871D8"/>
</g>
</g>
<defs>
<clipPath id="clip0_118_31038">
<rect width="32" height="32" fill="white"/>
</clipPath>
</defs>
</svg>
