<svg width="32" height="32" viewBox="0 0 32 32" fill="none" xmlns="http://www.w3.org/2000/svg">
<g id="friends 1" clip-path="url(#clip0_118_31021)">
<path id="Vector" d="M27.6379 15.2852C26.1103 16.5442 24.1543 17.3015 22.0249 17.3015C21.2878 17.3015 20.5715 17.2107 19.8867 17.04C21.1113 18.9048 21.8249 21.1338 21.8249 23.5266V27.041C21.8249 28.3554 21.345 29.5593 20.5525 30.489H28.552C30.4531 30.489 31.9997 28.9424 31.9997 27.041V23.5266C31.9997 20.1062 30.269 17.0828 27.6379 15.2852Z" fill="#1FB76D"/>
<path id="Vector_2" d="M9.97411 15.425C13.8132 15.425 16.9365 12.3017 16.9365 8.46263C16.9365 4.62329 13.8132 1.5 9.97411 1.5C6.135 1.5 3.01172 4.62329 3.01172 8.46263C3.01172 12.3017 6.135 15.425 9.97411 15.425Z" fill="#1FB76D"/>
<path id="Vector_3" d="M22.0229 15.425C25.862 15.425 28.9856 12.3017 28.9856 8.46263C28.9856 4.62329 25.862 1.5 22.0229 1.5C20.1658 1.5 18.4763 2.23096 17.2266 3.42016C18.2244 4.85131 18.8105 6.58959 18.8105 8.46263C18.8105 10.3354 18.2244 12.0737 17.2266 13.5049C18.4763 14.6941 20.1658 15.425 22.0229 15.425Z" fill="#1FB76D"/>
<path id="Vector_4" d="M15.5881 15.2852C14.0608 16.5442 12.1047 17.3015 9.97508 17.3015C7.84544 17.3015 5.88939 16.5444 4.36181 15.2852C1.73071 17.0828 0 20.1062 0 23.5266V27.041C0 28.9424 1.54663 30.489 3.44799 30.489H16.5019C18.4033 30.489 19.9499 28.9424 19.9499 27.041V23.5266C19.9499 20.1062 18.2194 17.0828 15.5881 15.2852Z" fill="#1FB76D"/>
</g>
<defs>
<clipPath id="clip0_118_31021">
<rect width="32" height="32" fill="white"/>
</clipPath>
</defs>
</svg>
