<svg width="34" height="34" viewBox="0 0 34 34" fill="none" xmlns="http://www.w3.org/2000/svg">
<g clip-path="url(#clip0_0_401)">
<path d="M31.4812 22.3386L31.1624 20.7448H27.6009L27.0343 22.3272L24.1797 22.3329C25.5386 19.0649 26.9005 15.798 28.2653 12.5324C28.4977 11.9785 28.9099 11.6966 29.5177 11.6994C29.9823 11.7037 30.7402 11.7037 31.7928 11.7008L34 22.3343L31.4812 22.3386ZM28.4027 18.5617H30.6978L29.8407 14.5667L28.4027 18.5617ZM10.0017 11.698L12.8718 11.7008L8.43483 22.34L5.52925 22.3372C4.7986 19.5269 4.07704 16.7144 3.36458 13.8995C3.22292 13.3385 2.94242 12.9461 2.40267 12.7605C1.92242 12.5947 1.122 12.3397 0 11.9927V11.7022H4.58575C5.37908 11.7022 5.84233 12.0862 5.99108 12.8738C6.14125 13.6629 6.51808 15.6717 7.12442 18.9003L10.0017 11.698ZM16.8158 11.7008L14.5463 22.3372L11.815 22.3343L14.0817 11.698L16.8158 11.7008ZM22.355 11.5039C23.1724 11.5039 24.2023 11.7589 24.7945 11.9927L24.3157 14.1984C23.7802 13.9831 22.899 13.6927 22.1581 13.7026C21.0814 13.721 20.4156 14.1729 20.4156 14.6064C20.4156 15.3119 21.5716 15.6675 22.7616 16.4382C24.1202 17.3165 24.2987 18.1056 24.2817 18.9627C24.2632 20.742 22.7616 22.4972 19.5939 22.4972C18.1489 22.476 17.6276 22.3542 16.4489 21.9362L16.9476 19.6342C18.1475 20.1371 18.6561 20.2972 19.6817 20.2972C20.621 20.2972 21.4271 19.9175 21.4342 19.2559C21.4398 18.7856 21.1508 18.5518 20.0968 17.971C19.0428 17.3887 17.5638 16.5827 17.5837 14.9648C17.6077 12.8937 19.5698 11.5039 22.3564 11.5039H22.355Z" fill="#2270A8"/>
</g>
<defs>
<clipPath id="clip0_0_401">
<rect width="34" height="34" fill="white"/>
</clipPath>
</defs>
</svg>
