<svg width="42" height="42" viewBox="0 0 42 42" fill="none" xmlns="http://www.w3.org/2000/svg">
<path d="M6.73618 24.1851C6.42117 23.8701 6.1674 23.4764 6.00115 23.0126C5.83489 22.5488 5.72988 22.0588 5.70363 21.525C5.65988 20.6237 5.79114 19.8099 6.10615 19.0574C6.41241 18.3136 6.86743 17.6311 7.47996 17.0186C8.3725 16.126 9.5363 15.3823 10.9714 14.8047C12.4064 14.2272 13.9902 13.7984 15.7141 13.5272C17.4554 13.2559 19.2229 13.1159 21.0343 13.1072C22.8456 13.1159 24.6132 13.2559 26.337 13.5272C28.0521 13.8072 29.6271 14.2272 31.0359 14.796C32.4535 15.3735 33.6173 16.1173 34.5273 17.0273C35.1224 17.6224 35.5861 18.2961 35.9011 19.0312C36.2249 19.7749 36.3824 20.5975 36.3562 21.4988C36.3474 22.6101 36.0061 23.4939 35.3586 24.1414C35.1136 24.3864 34.8161 24.5789 34.4923 24.6927C34.1598 24.8152 33.8011 24.8589 33.416 24.7889L28.5246 23.9576C28.1483 23.8964 27.8333 23.8089 27.562 23.6951C27.2995 23.5901 27.072 23.4501 26.9058 23.2838C26.6958 23.0738 26.547 22.8026 26.4682 22.4788C26.3807 22.1638 26.337 21.7875 26.337 21.3675L26.3107 20.0112C26.3107 19.8187 26.2407 19.6612 26.1007 19.5212C26.0307 19.4512 25.9607 19.3987 25.8732 19.3462C25.777 19.3024 25.6982 19.2762 25.6282 19.2412C25.1819 19.1099 24.5344 19.0049 23.6944 18.9349C22.8456 18.8737 21.9618 18.8299 21.043 18.8212C20.1067 18.8299 19.2229 18.8562 18.3654 18.9262C17.5254 18.9962 16.8866 19.1099 16.4316 19.2499C16.3703 19.2762 16.2916 19.3024 16.2041 19.3374C16.1078 19.3812 16.0291 19.4424 15.9503 19.5212C15.8016 19.6699 15.7403 19.8362 15.7403 20.0287L15.7316 21.35C15.7316 21.7875 15.6878 22.1638 15.5915 22.4701C15.5128 22.7938 15.3728 23.0563 15.154 23.2751C14.9878 23.4413 14.7778 23.5814 14.5065 23.6951C14.2352 23.8089 13.9202 23.8964 13.5527 23.9664L8.6 24.8064C8.21499 24.8764 7.87373 24.8502 7.55871 24.7277C7.25245 24.5964 6.98119 24.4301 6.73618 24.1851Z" fill="white"/>
</svg>
