<svg width="24" height="24" viewBox="0 0 24 24" fill="none" xmlns="http://www.w3.org/2000/svg">
<path d="M20.0383 6.82165L14.2783 2.79165C12.7083 1.69165 10.2983 1.75165 8.78828 2.92165L3.77828 6.83165C2.77828 7.61165 1.98828 9.21165 1.98828 10.4716V17.3716C1.98828 19.9216 4.05828 22.0016 6.60828 22.0016H17.3883C19.9383 22.0016 22.0083 19.9316 22.0083 17.3816V10.6016C22.0083 9.25165 21.1383 7.59165 20.0383 6.82165ZM12.7483 18.0016C12.7483 18.4116 12.4083 18.7516 11.9983 18.7516C11.5883 18.7516 11.2483 18.4116 11.2483 18.0016V15.0016C11.2483 14.5916 11.5883 14.2516 11.9983 14.2516C12.4083 14.2516 12.7483 14.5916 12.7483 15.0016V18.0016Z" fill="#004C43"/>
</svg>
