<svg width="24" height="24" viewBox="0 0 24 24" fill="none" xmlns="http://www.w3.org/2000/svg">
<path d="M13.8417 4.95653C13.8171 3.85681 12.8971 2.97721 11.7974 3.00187C10.6977 3.02653 9.81806 3.94648 9.84272 5.0462C9.86738 6.14593 10.7873 7.02552 11.8871 7.00086C12.9868 6.9762 13.8664 6.05625 13.8417 4.95653Z" fill="#1A1A1A"/>
<path d="M14.1581 18.9526C14.1335 17.8529 13.2135 16.9733 12.1138 16.998C11.0141 17.0226 10.1345 17.9426 10.1591 19.0423C10.1838 20.142 11.1037 21.0216 12.2035 20.997C13.3032 20.9723 14.1828 20.0523 14.1581 18.9526Z" fill="#1A1A1A"/>
<path d="M13.998 11.9565C13.9733 10.8568 13.0534 9.97721 11.9536 10.0019C10.8539 10.0265 9.97431 10.9465 9.99897 12.0462C10.0236 13.1459 10.9436 14.0255 12.0433 14.0009C13.143 13.9762 14.0226 13.0563 13.998 11.9565Z" fill="#1A1A1A"/>
</svg>
