<svg width="26" height="26" viewBox="0 0 26 26" fill="none" xmlns="http://www.w3.org/2000/svg">
<g clip-path="url(#clip0_118_30468)">
<mask id="mask0_118_30468" style="mask-type:luminance" maskUnits="userSpaceOnUse" x="0" y="0" width="26" height="26">
<path d="M0 1.90735e-06H26V26H0V1.90735e-06Z" fill="white"/>
</mask>
<g mask="url(#mask0_118_30468)">
<path d="M11.532 2.19231C11.8078 1.63372 12.3767 1.28008 13 1.28008C13.6233 1.28008 14.1922 1.63372 14.468 2.19231C15.3577 3.99505 16.425 6.15797 16.982 7.28669C17.2206 7.76997 17.6814 8.10477 18.2147 8.18252C19.4605 8.3634 21.8476 8.71003 23.8366 8.99939C24.4533 9.08901 24.9657 9.52076 25.158 10.1134C25.3508 10.7059 25.19 11.3567 24.7438 11.7913C23.3046 13.1946 21.5771 14.8783 20.6759 15.7569C20.29 16.133 20.114 16.6749 20.2049 17.2057C20.4177 18.4465 20.8257 20.8238 21.1654 22.8051C21.2706 23.4193 21.0185 24.0398 20.5143 24.406C20.0101 24.7723 19.3417 24.8206 18.7901 24.5308C17.0111 23.5953 14.876 22.4731 13.7616 21.8871C13.2849 21.6366 12.7152 21.6366 12.2384 21.8871C11.124 22.4731 8.98891 23.5953 7.20995 24.5308C6.65826 24.8206 5.98993 24.7723 5.48577 24.406C4.98156 24.0398 4.72948 23.4193 4.8346 22.8051C5.17433 20.8238 5.5823 18.4465 5.79513 17.2057C5.88598 16.6749 5.71002 16.133 5.32408 15.7569C4.42292 14.8783 2.69549 13.1946 1.25615 11.7913C0.810035 11.3567 0.649211 10.7059 0.841977 10.1134C1.03434 9.52076 1.54672 9.08901 2.16346 8.99939C4.15241 8.71003 6.53958 8.3634 7.78535 8.18252C8.3186 8.10477 8.77939 7.76997 9.01801 7.28669C9.57498 6.15797 10.6423 3.99505 11.532 2.19231Z" stroke="#1A1A1A" stroke-width="1.5" stroke-miterlimit="10" stroke-linecap="round" stroke-linejoin="round"/>
</g>
</g>
<defs>
<clipPath id="clip0_118_30468">
<rect width="26" height="26" fill="white"/>
</clipPath>
</defs>
</svg>
