<svg width="18" height="18" viewBox="0 0 18 18" fill="none" xmlns="http://www.w3.org/2000/svg">
<path d="M8.2625 9.75V9.7375H8.25H4.5C4.29065 9.7375 4.11575 9.66683 3.97446 9.52554C3.83317 9.38425 3.7625 9.20935 3.7625 9C3.7625 8.79065 3.83317 8.61575 3.97446 8.47446C4.11575 8.33317 4.29065 8.2625 4.5 8.2625H8.25H8.2625V8.25V4.5C8.2625 4.29065 8.33317 4.11575 8.47446 3.97446C8.61575 3.83317 8.79065 3.7625 9 3.7625C9.20935 3.7625 9.38425 3.83317 9.52554 3.97446C9.66683 4.11575 9.7375 4.29065 9.7375 4.5V8.25V8.2625H9.75H13.5C13.7094 8.2625 13.8842 8.33317 14.0255 8.47446C14.1668 8.61575 14.2375 8.79065 14.2375 9C14.2375 9.20935 14.1668 9.38425 14.0255 9.52554C13.8842 9.66683 13.7094 9.7375 13.5 9.7375H9.75H9.7375V9.75V13.5C9.7375 13.7094 9.66683 13.8842 9.52554 14.0255C9.38425 14.1668 9.20935 14.2375 9 14.2375C8.79065 14.2375 8.61575 14.1668 8.47446 14.0255C8.33317 13.8842 8.2625 13.7094 8.2625 13.5V9.75Z" fill="#1A1A1A" stroke="#1A1A1A" stroke-width="0.025"/>
</svg>
