<svg width="26" height="26" viewBox="0 0 26 26" fill="none" xmlns="http://www.w3.org/2000/svg">
<path d="M13.0013 16.793C15.3955 16.793 17.3346 14.8538 17.3346 12.4596V6.5013C17.3346 4.10714 15.3955 2.16797 13.0013 2.16797C10.6071 2.16797 8.66797 4.10714 8.66797 6.5013L8.66797 12.4596C8.66797 14.8538 10.6071 16.793 13.0013 16.793Z" stroke="#1A1A1A" stroke-width="1.5" stroke-linecap="round" stroke-linejoin="round"/>
<path d="M4.71094 10.4531V12.2948C4.71094 16.8665 8.42677 20.5823 12.9984 20.5823C17.5701 20.5823 21.2859 16.8665 21.2859 12.2948V10.4531" stroke="#1A1A1A" stroke-width="1.5" stroke-linecap="round" stroke-linejoin="round"/>
<path d="M11.4961 6.96734C12.4711 6.60984 13.5328 6.60984 14.5078 6.96734" stroke="#1A1A1A" stroke-width="1.5" stroke-linecap="round" stroke-linejoin="round"/>
<path d="M12.1328 9.26219C12.707 9.11052 13.3028 9.11052 13.877 9.26219" stroke="#1A1A1A" stroke-width="1.5" stroke-linecap="round" stroke-linejoin="round"/>
<path d="M13 20.582V23.832" stroke="#1A1A1A" stroke-width="1.5" stroke-linecap="round" stroke-linejoin="round"/>
</svg>
