<svg width="12" height="12" viewBox="0 0 12 12" fill="none" xmlns="http://www.w3.org/2000/svg">
<path d="M10.0211 3.40887L7.14109 1.39387C6.35609 0.84387 5.15109 0.87387 4.39609 1.45887L1.89109 3.41387C1.39109 3.80387 0.996094 4.60387 0.996094 5.23387V8.68387C0.996094 9.95887 2.03109 10.9989 3.30609 10.9989H8.69609C9.97109 10.9989 11.0061 9.96387 11.0061 8.68887V5.29887C11.0061 4.62387 10.5711 3.79387 10.0211 3.40887ZM6.37609 8.99887C6.37609 9.20387 6.20609 9.37387 6.00109 9.37387C5.79609 9.37387 5.62609 9.20387 5.62609 8.99887V7.49887C5.62609 7.29387 5.79609 7.12387 6.00109 7.12387C6.20609 7.12387 6.37609 7.29387 6.37609 7.49887V8.99887Z" fill="#1A1A1A"/>
</svg>
