<svg width="34" height="34" viewBox="0 0 34 34" fill="none" xmlns="http://www.w3.org/2000/svg">
<path d="M9.1113 19.955L8.12505 23.6368L4.52036 23.7131C3.44308 21.7149 2.83203 19.4289 2.83203 16.9995C2.83203 14.6503 3.40335 12.435 4.41604 10.4844H4.41682L7.62601 11.0727L9.03183 14.2627C8.7376 15.1205 8.57723 16.0413 8.57723 16.9995C8.57734 18.0394 8.76571 19.0358 9.1113 19.955Z" fill="#FBBB00"/>
<path d="M30.9163 14.3516C31.079 15.2085 31.1638 16.0936 31.1638 16.9981C31.1638 18.0123 31.0572 19.0017 30.854 19.956C30.1644 23.2034 28.3624 26.0391 25.8661 28.0458L25.8654 28.045L21.8232 27.8387L21.2511 24.2675C22.9075 23.296 24.202 21.7758 24.8839 19.956H17.3086V14.3516H24.9944H30.9163Z" fill="#518EF8"/>
<path d="M25.866 28.0445L25.8668 28.0452C23.4391 29.9966 20.355 31.1642 16.9979 31.1642C11.6029 31.1642 6.91231 28.1488 4.51953 23.7112L9.11047 19.9531C10.3068 23.146 13.3869 25.419 16.9979 25.419C18.55 25.419 20.004 24.9994 21.2518 24.2669L25.866 28.0445Z" fill="#28B446"/>
<path d="M26.0432 6.09347L21.4538 9.85073C20.1625 9.04356 18.636 8.57728 17.0006 8.57728C13.3079 8.57728 10.1702 10.9545 9.03381 14.2619L4.41874 10.4836H4.41797C6.77572 5.9378 11.5254 2.83203 17.0006 2.83203C20.438 2.83203 23.5897 4.05645 26.0432 6.09347Z" fill="#F14336"/>
</svg>
