<svg width="20" height="20" viewBox="0 0 20 20" fill="none" xmlns="http://www.w3.org/2000/svg">
<g clip-path="url(#clip0_0_169)">
<path d="M6.66797 1.66797V4.16797" stroke="#4F4E4E" stroke-width="1.5" stroke-miterlimit="10" stroke-linecap="round" stroke-linejoin="round"/>
<path d="M13.332 1.66797V4.16797" stroke="#4F4E4E" stroke-width="1.5" stroke-miterlimit="10" stroke-linecap="round" stroke-linejoin="round"/>
<path d="M2.91797 7.57422H17.0846" stroke="#4F4E4E" stroke-width="1.5" stroke-miterlimit="10" stroke-linecap="round" stroke-linejoin="round"/>
<path d="M17.5 7.08464V14.168C17.5 16.668 16.25 18.3346 13.3333 18.3346H6.66667C3.75 18.3346 2.5 16.668 2.5 14.168V7.08464C2.5 4.58464 3.75 2.91797 6.66667 2.91797H13.3333C16.25 2.91797 17.5 4.58464 17.5 7.08464Z" stroke="#4F4E4E" stroke-width="1.5" stroke-miterlimit="10" stroke-linecap="round" stroke-linejoin="round"/>
<path d="M13.0801 11.4167H13.0875" stroke="#4F4E4E" stroke-width="2" stroke-linecap="round" stroke-linejoin="round"/>
<path d="M13.0801 13.9167H13.0875" stroke="#4F4E4E" stroke-width="2" stroke-linecap="round" stroke-linejoin="round"/>
<path d="M9.99803 11.4167H10.0055" stroke="#4F4E4E" stroke-width="2" stroke-linecap="round" stroke-linejoin="round"/>
<path d="M9.99803 13.9167H10.0055" stroke="#4F4E4E" stroke-width="2" stroke-linecap="round" stroke-linejoin="round"/>
<path d="M6.91209 11.4167H6.91957" stroke="#4F4E4E" stroke-width="2" stroke-linecap="round" stroke-linejoin="round"/>
<path d="M6.91209 13.9167H6.91957" stroke="#4F4E4E" stroke-width="2" stroke-linecap="round" stroke-linejoin="round"/>
</g>
<defs>
<clipPath id="clip0_0_169">
<rect width="20" height="20" fill="white"/>
</clipPath>
</defs>
</svg>
