<svg width="27" height="27" viewBox="0 0 27 27" fill="none" xmlns="http://www.w3.org/2000/svg">
<path d="M21.7574 16.3008L20.6324 14.4334C20.3962 14.0171 20.1824 13.2296 20.1824 12.7684V9.92212C20.1824 7.27839 18.63 4.99465 16.3912 3.92591C15.8062 2.89091 14.7262 2.24966 13.4887 2.24966C12.2625 2.24966 11.16 2.91341 10.575 3.95966C8.38126 5.0509 6.86252 7.31214 6.86252 9.92212V12.7684C6.86252 13.2296 6.64877 14.0171 6.41252 14.4221L5.27627 16.3008C4.82628 17.0546 4.72503 17.8871 5.00628 18.6521C5.27627 19.4058 5.91752 19.9908 6.75002 20.2721C8.9325 21.0146 11.2275 21.3746 13.5225 21.3746C15.8175 21.3746 18.1125 21.0146 20.2949 20.2833C21.0824 20.0246 21.6899 19.4283 21.9824 18.6521C22.2749 17.8758 22.1962 17.0208 21.7574 16.3008Z" fill="#004C43"/>
<path d="M16.6829 22.5119C16.2104 23.8169 14.9617 24.7507 13.4992 24.7507C12.6105 24.7507 11.733 24.3907 11.1142 23.7494C10.7542 23.4119 10.4842 22.9619 10.3267 22.5007C10.473 22.5232 10.6192 22.5344 10.7767 22.5569C11.0355 22.5907 11.3055 22.6244 11.5755 22.6469C12.2167 22.7032 12.8692 22.7369 13.5217 22.7369C14.163 22.7369 14.8042 22.7032 15.4342 22.6469C15.6704 22.6244 15.9067 22.6132 16.1317 22.5794C16.3117 22.5569 16.4917 22.5344 16.6829 22.5119Z" fill="#004C43"/>
</svg>
