<svg width="38" height="38" viewBox="0 0 38 38" fill="none" xmlns="http://www.w3.org/2000/svg">
<g clip-path="url(#clip0_93_18027)">
<path d="M12.5422 24.2566C11.788 25.0108 11.788 26.2335 12.5422 26.9874C13.2966 27.7416 14.5191 27.7416 15.2732 26.9874C17.3279 24.9328 20.6718 24.9328 22.7264 26.9874C23.1036 27.3644 23.598 27.5531 24.0921 27.5531C24.5862 27.5531 25.0805 27.3646 25.4577 26.9874C26.2119 26.2333 26.2119 25.0105 25.4577 24.2566C21.8968 20.6957 16.1031 20.6957 12.5422 24.2566Z" fill="#004C43"/>
<path d="M6.88202 18.5971C6.12787 19.3512 6.12787 20.574 6.88202 21.3279C7.63617 22.0818 8.85867 22.0823 9.61308 21.3279C14.7889 16.1521 23.2107 16.1521 28.3862 21.3279C28.7634 21.7048 29.2578 21.8936 29.7519 21.8936C30.246 21.8936 30.7404 21.7051 31.1176 21.3279C31.8717 20.5737 31.8717 19.351 31.1176 18.5971C24.4358 11.9156 13.5638 11.9156 6.88202 18.5971Z" fill="#004C43"/>
<path d="M37.4345 12.28C27.2696 2.11502 10.7303 2.11502 0.565613 12.28C-0.188538 13.0341 -0.188538 14.2569 0.565613 15.0108C1.32002 15.7649 2.54252 15.7649 3.29667 15.0108C7.49097 10.8162 13.0679 8.50637 18.9999 8.50637C24.9319 8.50637 30.5089 10.8165 34.7032 15.0108C35.0804 15.3877 35.5748 15.5764 36.0689 15.5764C36.563 15.5764 37.0573 15.388 37.4345 15.0108C38.1887 14.2569 38.1887 13.0341 37.4345 12.28Z" fill="#004C43"/>
<path d="M18.9982 33.3441C20.1687 33.3441 21.1175 32.3952 21.1175 31.2248C21.1175 30.0543 20.1687 29.1055 18.9982 29.1055C17.8277 29.1055 16.8789 30.0543 16.8789 31.2248C16.8789 32.3952 17.8277 33.3441 18.9982 33.3441Z" fill="#004C43"/>
</g>
<defs>
<clipPath id="clip0_93_18027">
<rect width="38" height="38" fill="white"/>
</clipPath>
</defs>
</svg>
