<svg width="64" height="64" viewBox="0 0 64 64" fill="none" xmlns="http://www.w3.org/2000/svg">
<path d="M32 0C14.3546 0 0 14.3554 0 32C0 49.6446 14.3546 64 32 64C49.6454 64 64 49.6446 64 32C64 14.3554 49.6454 0 32 0ZM47.0299 28.4376L32.1685 43.2989C30.5381 44.9292 27.8968 44.9294 26.2663 43.2989L17.6658 34.6984C16.0352 33.0686 16.0352 30.426 17.6658 28.7961C19.2963 27.1656 21.9375 27.1656 23.568 28.7961L29.2174 34.4449L41.1276 22.5351C42.7581 20.9046 45.3994 20.9046 47.0299 22.5351C48.6604 24.1651 48.6604 26.8078 47.0299 28.4376Z" fill="#004C43"/>
</svg>
