<svg width="26" height="26" viewBox="0 0 26 26" fill="none" xmlns="http://www.w3.org/2000/svg">
<path d="M9.20964 20.5846H8.66797C4.33464 20.5846 2.16797 19.5013 2.16797 14.0846L2.16797 8.66797C2.16797 4.33464 4.33464 2.16797 8.66797 2.16797L17.3346 2.16797C21.668 2.16797 23.8346 4.33464 23.8346 8.66797L23.8346 14.0846C23.8346 18.418 21.668 20.5846 17.3346 20.5846H16.793C16.4571 20.5846 16.1321 20.7471 15.9263 21.018L14.3013 23.1846C13.5863 24.138 12.4163 24.138 11.7013 23.1846L10.0763 21.018C9.90297 20.7796 9.50214 20.5846 9.20964 20.5846Z" stroke="#1A1A1A" stroke-width="1.5" stroke-miterlimit="10" stroke-linecap="round" stroke-linejoin="round"/>
<path d="M17.3287 11.9167H17.3384" stroke="#1A1A1A" stroke-width="2" stroke-linecap="round" stroke-linejoin="round"/>
<path d="M12.9967 11.9167H13.0064" stroke="#1A1A1A" stroke-width="2" stroke-linecap="round" stroke-linejoin="round"/>
<path d="M8.66072 11.9167H8.67045" stroke="#1A1A1A" stroke-width="2" stroke-linecap="round" stroke-linejoin="round"/>
</svg>
