<svg width="40" height="40" viewBox="0 0 40 40" fill="none" xmlns="http://www.w3.org/2000/svg">
<path d="M4.3013 31.6828L4.26797 31.7161C3.81797 30.7328 3.53464 29.6161 3.41797 28.3828C3.53464 29.5995 3.8513 30.6995 4.3013 31.6828Z" fill="#4F4E4E"/>
<path d="M15.0018 17.3005C17.1926 17.3005 18.9685 15.5246 18.9685 13.3339C18.9685 11.1431 17.1926 9.36719 15.0018 9.36719C12.8111 9.36719 11.0352 11.1431 11.0352 13.3339C11.0352 15.5246 12.8111 17.3005 15.0018 17.3005Z" fill="#4F4E4E"/>
<path d="M26.982 3.33203H13.0154C6.9487 3.33203 3.33203 6.9487 3.33203 13.0154V26.982C3.33203 28.7987 3.6487 30.382 4.26536 31.7154C5.6987 34.882 8.76536 36.6654 13.0154 36.6654H26.982C33.0487 36.6654 36.6654 33.0487 36.6654 26.982V23.1654V13.0154C36.6654 6.9487 33.0487 3.33203 26.982 3.33203ZM33.9487 20.832C32.6487 19.7154 30.5487 19.7154 29.2487 20.832L22.3154 26.782C21.0154 27.8987 18.9154 27.8987 17.6154 26.782L17.0487 26.3154C15.8654 25.282 13.982 25.182 12.6487 26.082L6.41536 30.2654C6.0487 29.332 5.83203 28.2487 5.83203 26.982V13.0154C5.83203 8.31536 8.31536 5.83203 13.0154 5.83203H26.982C31.682 5.83203 34.1654 8.31536 34.1654 13.0154V21.0154L33.9487 20.832Z" fill="#4F4E4E"/>
</svg>
