<svg width="34" height="34" viewBox="0 0 34 34" fill="none" xmlns="http://www.w3.org/2000/svg">
<path d="M25.5035 10.2738C25.3473 10.1809 25.1552 10.1744 24.9932 10.2566C24.8316 10.339 24.7222 10.4987 24.7029 10.6808C24.6837 10.8578 24.6538 11.0348 24.6164 11.2205C23.5713 16.0161 21.4725 18.3485 18.1985 18.3485H13.3946C13.1413 18.349 12.9233 18.5293 12.8726 18.7802L11.2713 26.3692L10.9853 28.3013C10.8208 29.1798 11.3918 30.0269 12.2607 30.1932C12.3566 30.2115 12.4538 30.221 12.5513 30.2214H15.7645C16.501 30.2237 17.1431 29.7155 17.3178 28.992L18.6159 23.7453H21.401C24.6879 23.7453 26.9596 21.0955 27.7976 16.2837C28.3507 13.9925 27.4356 11.5952 25.5035 10.2738Z" fill="#03A9F4"/>
<path d="M24.6993 6.07971C23.6302 4.87003 22.096 4.17071 20.4794 4.15629H11.5201C10.1793 4.1491 9.03776 5.12767 8.84315 6.45098L6.06122 24.9631C5.92798 25.8474 6.5385 26.6719 7.42495 26.8049C7.50539 26.817 7.5867 26.823 7.66805 26.8229H11.8231C12.0798 26.8225 12.3009 26.6421 12.3522 26.3912L13.8833 19.2674H18.3197C22.1696 19.2674 24.7135 16.583 25.8821 11.2801C25.929 11.0687 25.9652 10.8551 25.9903 10.64C26.2615 9.00401 25.7883 7.3325 24.6993 6.07971Z" fill="#283593"/>
</svg>
