<svg width="24" height="30" viewBox="0 0 24 30" fill="none" xmlns="http://www.w3.org/2000/svg">
<path d="M23.9093 11.884C23.9036 6.18896 19.8625 1.33046 14.2134 0.220751C7.95463 -1.01007 1.71854 3.03164 0.303438 9.2139C-0.343142 12.0276 0.0850754 14.7089 1.2251 17.317C2.30556 19.7899 3.85395 21.9615 5.6207 23.9837C7.38178 25.9975 9.33286 27.8142 11.4484 29.4534C11.8937 29.7998 12.0156 29.8027 12.4552 29.4562C15.43 27.1298 18.1042 24.5104 20.3049 21.4376C21.7682 19.3956 22.9762 17.2185 23.5463 14.754C23.7618 13.8161 23.8525 12.85 24 11.898C23.9688 11.8924 23.9404 11.8868 23.9093 11.884ZM20.9231 11.884C20.9231 16.7706 16.899 20.7842 11.9901 20.7926C7.03013 20.8067 2.97767 16.7819 2.98618 11.8586C2.99468 6.9804 7.03864 2.97812 11.9532 2.98094C16.8905 2.98376 20.9231 6.98603 20.9231 11.884Z" fill="#1A1A1A"/>
</svg>
