<svg width="24" height="24" viewBox="0 0 24 24" fill="none" xmlns="http://www.w3.org/2000/svg">
<g clip-path="url(#clip0_2771_7372)">
<mask id="mask0_2771_7372" style="mask-type:luminance" maskUnits="userSpaceOnUse" x="0" y="0" width="24" height="24">
<path d="M24 0H0V24H24V0Z" fill="white"/>
</mask>
<g mask="url(#mask0_2771_7372)">
<path d="M12 24C18.6274 24 24 18.6274 24 12C24 5.37258 18.6274 0 12 0C5.37258 0 0 5.37258 0 12C0 18.6274 5.37258 24 12 24Z" fill="#FFD65C"/>
<path d="M17.2427 8C17.0507 8 16.8504 8.06109 16.7041 8.20073L10.1737 14.4508C9.9809 14.6348 9.7874 14.6007 9.6359 14.384L7.38881 11.1694C7.1593 10.8414 6.67929 10.7498 6.33503 10.9687C5.99151 11.1876 5.89551 11.6451 6.12502 11.9731L8.37135 15.1876C9.04787 16.1541 10.3657 16.277 11.2274 15.4552L17.7812 9.22762C18.0729 8.94835 18.0729 8.48 17.7812 8.20073C17.6349 8.06109 17.4339 8 17.2427 8Z" fill="white"/>
</g>
</g>
<defs>
<clipPath id="clip0_2771_7372">
<rect width="24" height="24" fill="white"/>
</clipPath>
</defs>
</svg>
