<svg width="29" height="34" viewBox="0 0 29 34" fill="none" xmlns="http://www.w3.org/2000/svg">
<path fill-rule="evenodd" clip-rule="evenodd" d="M26.3135 29.1715C27.3165 27.6415 27.6905 26.8595 28.4555 25.1426C22.8116 23.0006 21.9107 14.9598 27.4865 11.8829C25.7866 9.74095 23.3896 8.5 21.1287 8.5C19.4967 8.5 18.3748 8.92501 17.3718 9.316C16.5218 9.63899 15.7568 9.92796 14.8049 9.92796C13.7849 9.92796 12.8839 9.60499 11.9319 9.265C10.895 8.89101 9.80698 8.5 8.44702 8.5C5.91409 8.5 3.21117 10.047 1.49421 12.6989C-0.919722 16.4388 -0.494729 23.4426 3.39817 29.4264C4.79213 31.5684 6.66208 33.9653 9.09301 33.9993C10.113 34.0163 10.776 33.7104 11.5069 33.3874C12.3399 33.0134 13.2409 32.6053 14.8219 32.6053C16.4028 32.5883 17.2868 33.0134 18.1198 33.3874C18.8337 33.7104 19.4797 34.0163 20.4827 33.9993C22.9476 33.9653 24.9196 31.3134 26.3135 29.1715Z" fill="#1A1A1A"/>
<path fill-rule="evenodd" clip-rule="evenodd" d="M21.2032 0C21.4454 1.78227 20.7643 3.54835 19.8714 4.77974C18.9179 6.10834 17.2531 7.14526 15.6488 7.08045C15.3612 5.363 16.1028 3.59692 17.0109 2.41415C18.0249 1.11795 19.7352 0.113417 21.2032 0Z" fill="#1A1A1A"/>
</svg>
