<svg width="24" height="24" viewBox="0 0 24 24" fill="none" xmlns="http://www.w3.org/2000/svg">
<path d="M6.43242 14.0875L5.73625 16.6864L3.19176 16.7402C2.43133 15.3298 2 13.7161 2 12.0013C2 10.343 2.40328 8.77926 3.11813 7.40234H3.11867L5.38399 7.81766L6.37633 10.0694C6.16863 10.6749 6.05543 11.3249 6.05543 12.0013C6.05551 12.7353 6.18848 13.4386 6.43242 14.0875Z" fill="#FFC107"/>
<path d="M21.8242 10.1328C21.939 10.7377 21.9989 11.3625 21.9989 12.0009C21.9989 12.7169 21.9236 13.4152 21.7802 14.0889C21.2934 16.3812 20.0214 18.3828 18.2594 19.7993L18.2588 19.7988L15.4055 19.6532L15.0017 17.1323C16.1709 16.4466 17.0847 15.3735 17.566 14.0889H12.2188V10.1328H17.644H21.8242Z" fill="#518EF8"/>
<path d="M18.2595 19.7975L18.2601 19.798C16.5464 21.1755 14.3694 21.9997 11.9997 21.9997C8.19141 21.9997 4.88043 19.8711 3.19141 16.7387L6.43207 14.0859C7.27656 16.3398 9.45074 17.9442 11.9997 17.9442C13.0952 17.9442 14.1216 17.648 15.0024 17.131L18.2595 19.7975Z" fill="#28B446"/>
<path d="M18.382 4.30219L15.1425 6.95438C14.2309 6.38461 13.1534 6.05547 11.9991 6.05547C9.39246 6.05547 7.17762 7.73348 6.37543 10.0681L3.11773 7.4011H3.11719C4.78148 4.19231 8.13422 2 11.9991 2C14.4254 2 16.6502 2.8643 18.382 4.30219Z" fill="#F14336"/>
</svg>
