<svg width="64" height="64" viewBox="0 0 64 64" fill="none" xmlns="http://www.w3.org/2000/svg">
<path d="M32 0C20.7544 0 11.375 9.05875 11.375 20.625C11.375 25.0252 12.6972 28.949 15.2349 32.6258L30.4216 56.3232C31.1584 57.4753 32.8431 57.473 33.5784 56.3232L48.831 32.5451C51.314 29.035 52.625 24.9134 52.625 20.625C52.625 9.25237 43.3726 0 32 0ZM32 30C26.8309 30 22.625 25.7941 22.625 20.625C22.625 15.4559 26.8309 11.25 32 11.25C37.1691 11.25 41.375 15.4559 41.375 20.625C41.375 25.7941 37.1691 30 32 30Z" fill="#004C43"/>
<path d="M46.658 43.0859L37.2166 57.8468C34.7728 61.6571 29.2136 61.6446 26.7815 57.8504L17.3248 43.0898C9.00425 45.0136 3.875 48.5377 3.875 52.7491C3.875 60.0568 18.366 63.9991 32 63.9991C45.634 63.9991 60.125 60.0568 60.125 52.7491C60.125 48.5347 54.9886 45.0087 46.658 43.0859Z" fill="#004C43"/>
</svg>
