<svg width="38" height="38" viewBox="0 0 38 38" fill="none" xmlns="http://www.w3.org/2000/svg">
<g clip-path="url(#clip0_99_17367)">
<path d="M37.9485 15.2755C37.8957 14.7228 37.4581 14.2852 36.9054 14.2324C36.5958 14.2029 29.2722 13.5567 25.0075 17.8215C24.0827 18.7462 23.3892 19.8148 22.8699 20.9245C22.0146 17.4225 20.4934 14.5171 18.405 12.4287C15.831 9.85475 12.016 8.14223 7.3726 7.47641C3.91757 6.98093 1.22722 7.22845 1.11441 7.23936C0.561698 7.2922 0.124179 7.72972 0.0713351 8.28243C0.0604991 8.39524 -0.18702 11.0855 0.30839 14.5406C0.974206 19.1841 2.68666 22.9991 5.26071 25.573C7.83469 28.147 11.6497 29.8595 16.2931 30.5253C18.0032 30.7706 19.5256 30.8337 20.6411 30.8337C21.6519 30.8336 23.1251 30.8139 23.8033 30.8139C26.1752 30.8139 31.1394 30.3935 34.3594 27.1733C38.6241 22.9088 37.9781 15.5853 37.9485 15.2755ZM12.652 18.1817C12.1996 17.7294 11.4661 17.7294 11.0136 18.1817C10.5611 18.6341 10.5611 19.3677 11.0136 19.8202L19.6914 28.4979C16.3477 28.3853 10.5795 27.6152 6.89909 23.9347C2.51291 19.5485 2.26428 12.1589 2.32951 9.4962C4.99233 9.42673 12.3696 9.67025 16.7666 14.0673C20.4364 17.7371 21.2097 23.5087 21.3262 26.856L12.652 18.1817ZM32.7211 25.535C30.6789 27.5772 27.6063 28.2309 25.3983 28.421L30.5027 23.3166C30.9551 22.8643 30.9551 22.1307 30.5027 21.6782C30.0503 21.2258 29.3167 21.2258 28.8642 21.6782L23.7554 26.787C23.9426 24.5819 24.5944 21.5113 26.6458 19.4598C29.3037 16.8019 33.7064 16.4953 35.678 16.5028C35.6851 18.4744 35.3785 22.8775 32.7211 25.535Z" fill="#004C43"/>
</g>
<defs>
<clipPath id="clip0_99_17367">
<rect width="38" height="38" fill="white"/>
</clipPath>
</defs>
</svg>
