<svg width="22" height="22" viewBox="0 0 22 22" fill="none" xmlns="http://www.w3.org/2000/svg">
<path d="M11.02 2.66797C7.98583 2.66797 5.52 5.1338 5.52 8.16797L5.52 10.8171C5.52 11.3763 5.28167 12.2288 4.9975 12.7055L3.94333 14.4563C3.2925 15.538 3.74167 16.7388 4.93333 17.1421C8.88417 18.4621 13.1467 18.4621 17.0975 17.1421C18.2067 16.7755 18.6925 15.4646 18.0875 14.4563L17.0333 12.7055C16.7583 12.2288 16.52 11.3763 16.52 10.8171V8.16797C16.52 5.14297 14.045 2.66797 11.02 2.66797Z" stroke="#FFFBEF" stroke-width="1.5" stroke-miterlimit="10" stroke-linecap="round"/>
<path d="M12.7159 2.93234C12.4317 2.84984 12.1384 2.78568 11.8359 2.74901C10.9559 2.63901 10.1126 2.70318 9.32422 2.93234C9.59005 2.25401 10.2501 1.77734 11.0201 1.77734C11.7901 1.77734 12.4501 2.25401 12.7159 2.93234Z" stroke="#FFFBEF" stroke-width="1.5" stroke-miterlimit="10" stroke-linecap="round" stroke-linejoin="round"/>
<path d="M13.7695 17.4727C13.7695 18.9852 12.532 20.2227 11.0195 20.2227C10.2679 20.2227 9.5712 19.911 9.0762 19.416C8.5812 18.921 8.26953 18.2243 8.26953 17.4727" stroke="#FFFBEF" stroke-width="1.5" stroke-miterlimit="10"/>
</svg>
