<svg width="24" height="24" viewBox="0 0 24 24" fill="none" xmlns="http://www.w3.org/2000/svg">
<path d="M17.8011 2.10049L7.87107 4.59049C6.42107 4.95049 4.95107 6.42049 4.59107 7.87049L2.10107 17.8005C1.35107 20.8005 3.19107 22.6505 6.20107 21.9005L16.1311 19.4205C17.5711 19.0605 19.0511 17.5805 19.4111 16.1405L21.9011 6.20049C22.6511 3.20049 20.8011 1.35049 17.8011 2.10049Z" stroke="#4F4E4E" stroke-width="1.5" stroke-linecap="round" stroke-linejoin="round"/>
<path d="M12 15.5C13.933 15.5 15.5 13.933 15.5 12C15.5 10.067 13.933 8.5 12 8.5C10.067 8.5 8.5 10.067 8.5 12C8.5 13.933 10.067 15.5 12 15.5Z" stroke="#1A1A1A" stroke-width="1.5" stroke-linecap="round" stroke-linejoin="round"/>
</svg>
