<svg width="83" height="76" viewBox="0 0 83 76" fill="none" xmlns="http://www.w3.org/2000/svg">
<path d="M41.419 75.894C34.2976 75.894 27.1761 75.894 20.0546 75.894C13.9042 75.894 11.2499 73.1462 11.2499 67.0753C11.2499 60.4933 11.1851 53.8474 11.2499 47.2653C11.3146 44.7731 10.3435 43.7506 7.81862 43.9424C6.97699 44.0063 6.07062 44.0063 5.22899 43.9424C3.61048 43.7506 1.34455 44.7731 0.567662 42.7921C-0.338708 40.4916 -0.273967 37.8715 1.60351 35.8905C3.73996 33.6539 6.07062 31.5451 8.46603 29.5641C10.5377 27.8387 11.3794 25.7938 11.1851 23.1099C10.9909 20.4898 11.1851 17.8059 11.1851 15.122C11.1851 13.2688 12.0915 12.3741 13.969 12.438C16.0407 12.438 18.0477 12.3741 20.1194 12.5019C20.8315 12.5019 21.9968 12.6297 22.1911 13.0771C23.8096 16.5278 25.1691 14.2273 26.5287 12.9493C30.6073 9.17896 34.8155 5.47257 38.7647 1.51057C40.8364 -0.598238 42.4549 -0.406529 44.4619 1.51057C52.8134 9.43458 61.2297 17.1669 69.646 24.9631C73.2715 28.2861 76.8969 31.6729 80.4577 34.9959C81.4935 35.9544 82.3999 36.9769 82.7236 38.3828C83.63 42.0892 82.3352 43.8145 78.5155 43.8145C71.6529 43.8145 72.1061 43.2394 72.1061 50.2688C72.1061 55.5728 72.1709 60.9406 72.1061 66.2446C72.0414 73.0823 69.3223 75.7023 62.4598 75.7662C55.403 75.8301 48.411 75.8301 41.419 75.894C41.419 75.8301 41.419 75.8301 41.419 75.894ZM35.4629 29.628C33.6502 32.4398 31.0605 33.5261 29.1183 35.2515C27.8235 36.3379 26.5287 37.2964 27.1114 39.2135C27.7588 41.1306 29.442 41.5779 31.19 41.8335C34.6213 42.3448 37.2109 40.6194 39.6063 38.5106C41.3543 37.0408 43.426 35.9544 45.4977 37.4242C50.677 41.0667 55.7267 44.9009 60.7118 48.7351C61.8124 49.5658 62.3303 50.8439 61.2944 52.122C60.2586 53.3361 59.0285 53.1444 57.7984 52.3137C56.0504 51.0995 54.3024 49.8215 52.5544 48.5434C52.0365 48.16 51.3891 47.5848 50.8712 48.16C50.0943 48.9907 51.0654 49.5019 51.5833 49.9493C52.7487 50.9078 53.914 51.8025 55.1441 52.761C56.5036 53.8474 57.7337 55.0615 56.3094 56.723C54.8851 58.3206 53.3961 57.362 52.0365 56.3396C50.418 55.1254 48.7347 53.9113 47.1162 52.6971C46.5983 52.3137 46.0156 51.6747 45.433 52.4415C44.915 53.0805 45.4977 53.6557 45.9509 54.103C46.8573 54.8698 47.8284 55.5728 48.7347 56.2757C50.0296 57.362 50.8064 58.704 49.6411 60.1738C48.5405 61.5797 47.1162 60.9406 45.8862 60.1099C44.4619 59.0874 43.1023 58.065 41.7427 57.1064C41.1601 56.723 40.5127 55.8923 39.8005 56.5952C38.9589 57.4259 39.9947 57.8733 40.4479 58.3845C41.2248 59.2152 42.5844 59.8543 42.0017 61.2601C41.2896 62.9216 39.671 62.6021 38.3115 62.4104C32.1611 61.6436 26.6582 59.407 22.1263 55.0615C21.3494 54.2947 20.8315 53.1444 19.213 53.1444C19.213 57.0425 19.213 60.7489 19.213 64.4553C19.213 67.1393 20.6373 68.1617 23.2917 68.1617C35.3982 68.0978 47.4399 68.1617 59.5464 68.2256C62.3303 68.2256 63.7546 67.1392 63.7546 64.2636C63.6898 59.9182 63.7546 55.5088 63.7546 51.1634C63.7546 49.5658 63.3661 48.2878 62.0066 47.2653C57.0863 43.5589 52.2307 39.8525 47.3104 36.2101C44.6561 34.293 41.8722 34.4208 39.2179 36.4018C38.1173 37.2325 36.9519 38.0633 35.8513 38.894C34.5565 39.8525 33.1322 40.1721 31.5785 39.9804C30.6073 39.8525 29.5068 39.7247 29.1831 38.6384C28.8593 37.6159 29.8305 37.1686 30.5426 36.6574C33.4559 34.4847 36.3693 32.2481 39.3473 30.1392C41.419 28.7334 43.6202 28.35 46.0804 29.3724C49.7059 30.8422 53.3313 32.1202 56.9568 33.4622C58.8343 34.1652 60.7765 34.6764 62.913 33.9095C62.7187 33.3983 62.7187 33.0788 62.5245 32.8871C56.0504 26.9441 49.5764 21.0011 43.167 14.9942C41.6133 13.5244 40.4479 14.419 39.2826 15.5054C36.4987 17.9976 33.7149 20.4898 30.9958 23.046C27.3056 26.4329 23.7448 29.8197 19.4719 33.8456C25.4281 33.2705 29.8305 30.1392 35.4629 29.628Z" fill="#FFD65C"/>
</svg>
