<svg width="20" height="20" viewBox="0 0 20 20" fill="none" xmlns="http://www.w3.org/2000/svg">
<path d="M5.58465 15.0013H3.45966C2.26799 15.0013 1.66797 14.4013 1.66797 13.2096V3.45966C1.66797 2.26799 2.26799 1.66797 3.45966 1.66797H7.04298C8.23465 1.66797 8.83462 2.26799 8.83462 3.45966V5.0013" stroke="#4F4E4E" stroke-width="1.2" stroke-miterlimit="10" stroke-linecap="round" stroke-linejoin="round"/>
<path d="M14.4737 7.01665V16.3167C14.4737 17.6583 13.807 18.3333 12.4654 18.3333H7.59868C6.25702 18.3333 5.58203 17.6583 5.58203 16.3167V7.01665C5.58203 5.67499 6.25702 5 7.59868 5H12.4654C13.807 5 14.4737 5.67499 14.4737 7.01665Z" stroke="#4F4E4E" stroke-width="1.2" stroke-miterlimit="10" stroke-linecap="round" stroke-linejoin="round"/>
<path d="M11.168 5.0013V3.45966C11.168 2.26799 11.7679 1.66797 12.9596 1.66797H16.5429C17.7346 1.66797 18.3346 2.26799 18.3346 3.45966V13.2096C18.3346 14.4013 17.7346 15.0013 16.5429 15.0013H14.4763" stroke="#4F4E4E" stroke-width="1.2" stroke-miterlimit="10" stroke-linecap="round" stroke-linejoin="round"/>
<path d="M8.33203 9.16797H11.6654" stroke="#4F4E4E" stroke-width="1.2" stroke-miterlimit="10" stroke-linecap="round" stroke-linejoin="round"/>
<path d="M8.33203 11.668H11.6654" stroke="#4F4E4E" stroke-width="1.2" stroke-miterlimit="10" stroke-linecap="round" stroke-linejoin="round"/>
<path d="M10 18.332V15.832" stroke="#4F4E4E" stroke-width="1.2" stroke-miterlimit="10" stroke-linecap="round" stroke-linejoin="round"/>
</svg>
