<svg width="64" height="61" viewBox="0 0 64 61" fill="none" xmlns="http://www.w3.org/2000/svg">
<path d="M49.625 0H14.375C6.44863 0 0 6.44863 0 14.375V31.875C0 39.1663 5.456 45.2069 12.5 46.1283V58.8534C12.5 59.6117 12.9567 60.2955 13.6575 60.5856C13.8894 60.6818 14.1331 60.7284 14.3746 60.7284C14.8625 60.7284 15.3421 60.5379 15.7008 60.1791L29.63 46.25H49.625C57.5514 46.25 64 39.8014 64 31.875V14.375C64 6.44863 57.5514 0 49.625 0ZM17.0001 27.6458C14.929 27.6458 13.2501 25.9669 13.2501 23.8958C13.2501 21.8247 14.9291 20.1458 17.0001 20.1458C19.0711 20.1458 20.7501 21.8247 20.7501 23.8958C20.7501 25.9668 19.0713 27.6458 17.0001 27.6458ZM32.0001 27.6458C29.929 27.6458 28.2501 25.9669 28.2501 23.8958C28.2501 21.8247 29.929 20.1458 32.0001 20.1458C34.0711 20.1458 35.7501 21.8247 35.7501 23.8958C35.7501 25.9668 34.0711 27.6458 32.0001 27.6458ZM47.0001 27.6458C44.9291 27.6458 43.2501 25.9669 43.2501 23.8958C43.2501 21.8247 44.9291 20.1458 47.0001 20.1458C49.0711 20.1458 50.7501 21.8247 50.7501 23.8958C50.7501 25.9668 49.0711 27.6458 47.0001 27.6458Z" fill="#004C43"/>
</svg>
