<svg width="18" height="18" viewBox="0 0 18 18" fill="none" xmlns="http://www.w3.org/2000/svg">
<path d="M5.06965 16.5015H12.9304C15.0007 16.5015 15.8257 15.2339 15.9233 13.6887L16.3133 7.49311C16.4183 5.87294 15.1282 4.5003 13.5005 4.5003C13.043 4.5003 12.6229 4.23778 12.4129 3.83274L11.8728 2.74513C11.5278 2.06256 10.6277 1.5 9.86264 1.5L8.14496 1.5C7.37238 1.5 6.47229 2.06256 6.12726 2.74513L5.5872 3.83274C5.37718 4.23778 4.95714 4.5003 4.49959 4.5003C2.87193 4.5003 1.5818 5.87294 1.68681 7.49311L2.07685 13.6887C2.16686 15.2339 2.99944 16.5015 5.06965 16.5015Z" stroke="#1A1A1A" stroke-width="1.5" stroke-linecap="round" stroke-linejoin="round"/>
<path d="M7.87397 6H10.1242" stroke="#1A1A1A" stroke-width="1.5" stroke-linecap="round" stroke-linejoin="round"/>
<path d="M9.00076 13.5015C10.3434 13.5015 11.4385 12.4064 11.4385 11.0638C11.4385 9.72114 10.3434 8.62603 9.00076 8.62603C7.65812 8.62603 6.56301 9.72114 6.56301 11.0638C6.56301 12.4064 7.65812 13.5015 9.00076 13.5015Z" stroke="#1A1A1A" stroke-width="1.5" stroke-linecap="round" stroke-linejoin="round"/>
</svg>
