<svg width="10" height="18" viewBox="0 0 10 18" fill="none" xmlns="http://www.w3.org/2000/svg">
<path id="SF Symbol / chevron.backward" d="M0 8.99805C0 9.33984 0.126953 9.63281 0.400391 9.88672L7.99805 17.3281C8.21289 17.543 8.48633 17.6602 8.80859 17.6602C9.45312 17.6602 9.9707 17.1523 9.9707 16.498C9.9707 16.1758 9.83398 15.8926 9.61914 15.668L2.77344 8.99805L9.61914 2.32812C9.83398 2.10352 9.9707 1.81055 9.9707 1.49805C9.9707 0.84375 9.45312 0.335938 8.80859 0.335938C8.48633 0.335938 8.21289 0.453125 7.99805 0.667969L0.400391 8.09961C0.126953 8.36328 0 8.65625 0 8.99805Z" fill="#FFD65C"/>
</svg>
