<svg width="10" height="18" viewBox="0 0 10 18" fill="none" xmlns="http://www.w3.org/2000/svg">
<path id="SF Symbol / chevron.forward" d="M10.002 8.99805C9.99219 8.65625 9.86523 8.36328 9.60156 8.09961L2.00391 0.667969C1.7793 0.453125 1.51562 0.335938 1.19336 0.335938C0.539062 0.335938 0.03125 0.84375 0.03125 1.49805C0.03125 1.81055 0.158203 2.10352 0.382812 2.32812L7.21875 8.99805L0.382812 15.668C0.158203 15.8926 0.03125 16.1758 0.03125 16.498C0.03125 17.1523 0.539062 17.6602 1.19336 17.6602C1.50586 17.6602 1.7793 17.543 2.00391 17.3281L9.60156 9.88672C9.875 9.63281 10.002 9.33984 10.002 8.99805Z" fill="#FFD65C"/>
</svg>
